<svg xmlns="http://www.w3.org/2000/svg" width="1920" height="55" viewBox="0 0 1920 55" fill="none" preserveAspectRatio="none">
<path d="M1200 24.8047C1105.81 24.8047 1054.19 0.804762 960 0.804762V55H1920V0.804762C1864.01 0.755738 1774.19 24.8047 1680 24.8047C1585.81 24.8047 1534.19 0.804762 1440 0.804762C1345.81 0.804762 1294.19 24.8047 1200 24.8047Z" fill="white"/>
<path d="M720 24.8047C814.193 24.8047 865.807 0.804762 960 0.804762V55H0V0.804762C55.9945 0.755738 145.807 24.8047 240 24.8047C334.193 24.8047 385.807 0.804762 480 0.804762C574.193 0.804762 625.807 24.8047 720 24.8047Z" fill="white"/>
</svg>