<svg width="248" height="50" viewBox="0 0 248 50" fill="none" xmlns="http://www.w3.org/2000/svg">
<g clip-path="url(#clip0_101_12091)">
<path d="M4.20677 38.7558C1.41338 34.7091 -0.0567254 29.9015 -0.00245608 24.9907C-0.00439967 21.706 0.647511 18.4536 1.91556 15.4216C3.18361 12.3895 5.04262 9.63805 7.38506 7.32632C12.1462 2.63725 18.5699 0.00514695 25.2652 7.54042e-06C31.9604 -0.00513187 38.3883 2.61711 43.1566 7.29886C45.4664 9.56496 47.3109 12.2576 48.587 15.2263C49.9078 18.2949 50.586 21.5997 50.58 24.9385C50.6294 29.86 49.1505 34.6764 46.3459 38.7284L45.7698 38.311C48.4894 34.3817 49.923 29.7109 49.8743 24.9385C49.8743 11.5879 38.8289 0.725188 25.2529 0.725188C11.677 0.725188 0.703217 11.6099 0.703217 24.9907C0.650084 29.7515 2.07496 34.4124 4.78289 38.3357L4.20677 38.7558Z" fill="#1FA4B5"/>
<path d="M45.2295 37.9925L44.6369 37.5284C47.3355 32.9538 48.0853 31.2568 48.496 25.3751C48.8544 20.1139 46.6519 14.3009 42.6053 9.82782C38.0984 4.84403 32.023 2.07617 25.5148 2.02949C22.448 1.97247 19.4008 2.52849 16.5533 3.66468C13.7059 4.80087 11.1161 6.49417 8.93685 8.6445C6.75764 10.7948 5.0333 13.3585 3.86577 16.184C2.69824 19.0096 2.1112 22.0396 2.13937 25.095C2.13937 30.3452 3.48456 33.5359 5.91858 37.5449L5.32041 37.976C2.87261 33.9423 1.4337 30.4879 1.4337 25.095C1.38714 18.8703 3.80464 12.878 8.1624 8.41644C10.3712 6.16693 13.0133 4.38491 15.9303 3.17727C18.9667 1.91681 22.2283 1.28345 25.5176 1.31555C28.9535 1.333 32.3428 2.10952 35.4411 3.58915C41.1427 6.33233 45.5861 11.1296 47.8731 17.0111C48.92 19.6904 49.3787 22.5621 49.2182 25.4328C48.7882 31.427 47.9613 33.3656 45.2295 37.9925Z" fill="#1FA4B5"/>
<path d="M24.9966 50.014C24.0249 50.02 23.0538 49.9678 22.0884 49.8575C18.7971 49.4538 15.3459 48.1495 11.8369 45.9858L12.2007 45.346C15.6243 47.4576 18.979 48.7262 22.1739 49.1188C24.4342 49.3514 26.7142 49.3155 28.966 49.0117C33.0457 48.188 34.8925 47.5427 38.1976 45.4091L38.589 46.0956C35.0193 48.3994 32.985 48.9431 29.101 49.7229C27.7423 49.924 26.3702 50.0213 24.9966 50.014Z" fill="#1FA4B5"/>
<path d="M25.2088 47.9628C19.7895 47.9628 16.7959 46.0132 14.9187 44.7968C14.0917 44.2641 13.7471 43.8522 12.9036 43.8C12.1263 43.7534 10.4917 45.6398 10.4035 45.7469L9.87421 45.2993C9.96518 45.195 11.5061 43.0806 12.854 43.0779C14.0228 43.0779 14.3315 43.5364 15.2963 44.1762C17.2617 45.4503 20.101 47.323 25.4955 47.2516C30.89 47.1802 33.5143 45.4201 35.2564 44.2559C36.2074 43.6216 36.9599 43.1191 37.7759 43.1575C39.0025 43.2207 40.0776 44.3163 40.6785 45.3185L40.0748 45.6947C39.4408 44.6321 38.5229 43.9209 37.74 43.8797C37.1529 43.8467 36.5189 44.2696 35.6423 44.8545C33.8313 46.0654 31.0913 47.8914 25.5065 47.9683L25.2088 47.9628Z" fill="#1FA4B5"/>
<path d="M24.9056 45.843C20.2195 45.843 17.2397 43.9209 15.2246 42.6111C14.202 41.9493 13.3916 41.4276 12.7768 41.4139C11.4647 41.3837 10.7839 42.1196 8.96455 44.0829L8.6255 44.4481L8.11279 43.9511L8.45184 43.5859C10.318 41.5704 11.167 40.656 12.7934 40.6889C13.6038 40.7082 14.4859 41.2793 15.6023 41.9987C17.7689 43.3991 20.7377 45.313 25.6278 45.1043C30.6199 44.8874 33.4757 43.0339 35.3667 41.8093C36.3976 41.1393 37.1446 40.656 37.8641 40.656C39.3526 40.656 40.4387 41.812 41.6957 43.1493C41.9189 43.3854 42.1505 43.6298 42.3876 43.8742L41.8969 44.3822C41.6543 44.135 41.4228 43.8879 41.1967 43.649C40.05 42.4298 39.0604 41.3782 37.8723 41.3782C37.3569 41.3782 36.6484 41.8367 35.7526 42.4189C33.8009 43.6875 30.8459 45.6013 25.6664 45.8265C25.4055 45.8375 25.1519 45.843 24.9056 45.843Z" fill="#1FA4B5"/>
<path d="M25.2722 43.6518C20.7873 43.6518 17.7414 41.7159 15.481 40.2798C14.2985 39.5302 13.3667 38.9371 12.6611 38.9233H12.617C11.0705 38.9233 9.14649 40.7521 6.97985 42.9626L6.48643 42.4326C8.79089 40.0849 10.8445 38.1435 12.6749 38.1847C13.5707 38.2039 14.5741 38.8437 15.8476 39.651C18.1659 41.1255 21.3442 43.1438 26.0716 42.8939C29.7516 42.7017 32.3207 41.0514 34.3826 39.7251C35.8242 38.797 36.9654 38.0776 38.035 38.1627C39.9039 38.3302 41.6709 40.1068 43.2338 41.672C43.5095 41.9466 43.7465 42.1882 43.9919 42.4244L43.5122 42.9735C43.2614 42.7319 43.0105 42.4793 42.7431 42.2129C41.2684 40.7301 39.5952 39.0497 37.9743 38.9179C37.1474 38.8437 36.0834 39.5192 34.7519 40.3759C32.7342 41.672 29.9666 43.4486 26.1075 43.6518C25.8235 43.6463 25.5451 43.6518 25.2722 43.6518Z" fill="#1FA4B5"/>
<path d="M25.6003 41.1805C20.9141 41.1805 18.4746 39.4203 16.5037 37.9952C15.2495 37.0891 14.1661 36.3065 12.8099 36.2433C11.5033 36.1829 9.17681 36.9435 5.49132 40.9114L4.95931 40.4363C8.02182 37.1412 10.748 35.458 12.832 35.5541C14.4004 35.6255 15.5637 36.4658 16.9116 37.4378C18.8853 38.8602 21.3414 40.6313 26.1846 40.4803C29.9308 40.3622 31.841 38.9261 33.528 37.6602C34.8622 36.658 36.1247 35.7106 38.0405 35.5541C40.3753 35.3646 43.1704 38.1847 45.4142 40.4528L45.4942 40.5324L44.987 41.0129L44.907 40.9333C42.7652 38.7696 40.0996 36.0786 38.0984 36.2433C36.3893 36.3834 35.2619 37.2291 33.9636 38.2094C32.1939 39.5384 30.1871 41.0459 26.215 41.1722L25.6003 41.1805Z" fill="#1FA4B5"/>
<path d="M28.0842 16.2875H24.0521H23.9521V16.3875V17.2113V17.3113H24.0521H25.8818L22.9979 28.5759L19.6443 16.5008L19.6239 16.4275H19.5479H18.4453H18.3692L18.3489 16.5009L15.0088 28.5756L12.1217 17.3278H14.3463H14.4463V17.2278V16.404V16.304H14.3463H8.38672H8.28672V16.404V17.2278V17.3278H8.38672H10.9307L14.3212 30.3892L14.3407 30.4641H14.418H15.5454H15.6214L15.6418 30.3909L19.0182 18.2614L22.3624 30.3962L22.3827 30.4696H22.4588H23.589H23.6664L23.6858 30.3947L27.0729 17.3113H29.2785H29.3785V17.3085H29.8621V29.5969H27.1835H27.0835V29.6969V30.5206V30.6206H27.1835H33.1432H33.2432V30.5206V29.6969V29.5969H33.1432H30.9966V23.8602H37.9636V29.5969H35.7784H35.6784V29.6969V30.5206V30.6206H35.7784H41.738H41.838V30.5206V29.6969V29.5969H41.738H39.098V17.3085H41.7105H41.8105V17.2085V16.3848V16.2848H41.7105H35.7509H35.6509V16.3848V17.2085V17.3085H35.7509H37.9636V22.6717H30.9966V17.3085H33.4106H33.5106V17.2085V16.3848V16.2848H33.4106H28.1842H28.0842V16.2875Z" fill="#1FA4B5" stroke="#1FA4B5" stroke-width="0.2"/>
<mask id="path-3-outside-1_101_12091" maskUnits="userSpaceOnUse" x="60.9102" y="17" width="188" height="16" fill="black">
<rect fill="white" x="60.9102" y="17" width="188" height="16"/>
<path d="M121.89 31.0155V32.0041H113.896V18.162H121.796V19.1533H114.949V24.5297H121.289V25.5183H114.949V31.01L121.89 31.0155Z"/>
<path d="M201.333 25.0679C201.333 21.2237 204.489 18.1483 208.5 18.1483C212.511 18.1483 215.667 21.2347 215.667 25.0679C215.667 28.9012 212.511 31.9903 208.5 31.9903C204.489 31.9903 201.333 28.9039 201.333 25.0679ZM214.611 25.0679C214.611 21.7729 211.932 19.1258 208.497 19.1258C205.063 19.1258 202.383 21.7701 202.383 25.0679C202.383 28.3657 205.063 31.0128 208.497 31.0128C211.932 31.0128 214.611 28.3657 214.611 25.0679Z"/>
<path d="M144.612 18.4943V31.9299H143.559V25.499H135.479V31.9299H134.429V18.4943H135.479V24.5352H143.559V18.4943H144.612Z"/>
<path d="M138.048 18H132.166V18.8238H138.048V18Z"/>
<path d="M147.051 18H141.169V18.8238H147.051V18Z"/>
<path d="M137.773 31.3176H131.89V32.1414H137.773V31.3176Z"/>
<path d="M147.051 31.3176H141.169V32.1414H147.051V31.3176Z"/>
<path d="M87.5156 31.3176H83.5269V32.1414H87.5156V31.3176Z"/>
<path d="M94.0872 28.4838H87.1077L85.7597 32.0041H84.6571L90.0544 18.162H91.157L96.5378 32.0041H95.4351L94.0872 28.4838ZM93.7096 27.4953L90.614 19.4498L87.5156 27.4953H93.7096Z"/>
<path d="M97.6321 31.3176H93.6434V32.1414H97.6321V31.3176Z"/>
<path d="M98.1338 18.162H99.286L103.87 30.6394L108.476 18.162H109.606L104.421 32.0041H103.319L98.1338 18.162Z"/>
<path d="M100.802 18H96.8134V18.8238H100.802V18Z"/>
<path d="M110.863 18.0082H106.875V18.832H110.863V18.0082Z"/>
<path d="M160.307 28.4701H153.342L151.991 31.9903H150.888L156.286 18.151H157.388L162.769 31.9903H161.666L160.307 28.4701ZM159.93 27.4733L156.848 19.4361L153.739 27.4733H159.93Z"/>
<path d="M153.405 31.3176H149.416V32.1414H153.405V31.3176Z"/>
<path d="M164.065 31.3176H160.076V32.1414H164.065V31.3176Z"/>
<path d="M173.939 26.3173H169.528V31.9903H168.475V18.151H173.952C174.948 18.1486 175.911 18.5079 176.661 19.1617C177.41 19.8154 177.895 20.7187 178.024 21.7027C178.153 22.6866 177.918 23.6836 177.362 24.5072C176.806 25.3309 175.969 25.9246 175.005 26.1773L178.459 31.9903H177.246L173.939 26.3173ZM169.528 25.3288H173.952C174.776 25.3288 175.566 25.0028 176.149 24.4224C176.732 23.842 177.059 23.0549 177.059 22.2342C177.059 21.4134 176.732 20.6263 176.149 20.0459C175.566 19.4656 174.776 19.1395 173.952 19.1395H169.528V25.3288Z"/>
<path d="M171.066 31.3176H167.078V32.1414H171.066V31.3176Z"/>
<path d="M179.639 31.3176H175.65V32.1414H179.639V31.3176Z"/>
<path d="M197.184 31.9903H196.134V19.6915L190.993 28.2037H190.814L185.673 19.6915V31.9903H184.62V18.151H185.932L190.894 26.3365L195.856 18.151H197.184V31.9903Z"/>
<path d="M187.062 31.3176H183.074V32.1414H187.062V31.3176Z"/>
<path d="M198.706 31.3176H194.717V32.1414H198.706V31.3176Z"/>
<path d="M230.04 18.1373V31.9903H229.069L220.907 20.0869V31.9931H219.857V18.1373H220.769L228.987 30.0545V18.1373H230.04Z"/>
<path d="M222.503 31.3176H218.514V32.1414H222.503V31.3176Z"/>
<path d="M231.462 18H227.473V18.8238H231.462V18Z"/>
<path d="M63.9059 18.162H65.0085L68.592 30.6009L72.4511 18.162H73.7026L77.5921 30.6009L81.1756 18.162H82.2782L78.2867 32.0041H77.016L73.1265 19.5267L69.2039 32.0041H67.9332L63.9059 18.162Z"/>
<path d="M67.7926 18.0165H61.9102V18.8402H67.7926V18.0165Z"/>
<path d="M84.3925 18.0165H78.51V18.8402H84.3925V18.0165Z"/>
<path d="M241.724 26.375V31.9794H240.672V26.375L235.611 18.3625H236.801L241.212 25.3837L245.608 18.3652H246.799L241.724 26.375Z"/>
<path d="M238.353 18H234.365V18.8238H238.353V18Z"/>
<path d="M248.001 18H244.012V18.8238H248.001V18Z"/>
<path d="M243.191 31.3176H239.202V32.1414H243.191V31.3176Z"/>
</mask>
<path d="M121.89 31.0155V32.0041H113.896V18.162H121.796V19.1533H114.949V24.5297H121.289V25.5183H114.949V31.01L121.89 31.0155Z" fill="#1FA4B5"/>
<path d="M201.333 25.0679C201.333 21.2237 204.489 18.1483 208.5 18.1483C212.511 18.1483 215.667 21.2347 215.667 25.0679C215.667 28.9012 212.511 31.9903 208.5 31.9903C204.489 31.9903 201.333 28.9039 201.333 25.0679ZM214.611 25.0679C214.611 21.7729 211.932 19.1258 208.497 19.1258C205.063 19.1258 202.383 21.7701 202.383 25.0679C202.383 28.3657 205.063 31.0128 208.497 31.0128C211.932 31.0128 214.611 28.3657 214.611 25.0679Z" fill="#1FA4B5"/>
<path d="M144.612 18.4943V31.9299H143.559V25.499H135.479V31.9299H134.429V18.4943H135.479V24.5352H143.559V18.4943H144.612Z" fill="#1FA4B5"/>
<path d="M138.048 18H132.166V18.8238H138.048V18Z" fill="#1FA4B5"/>
<path d="M147.051 18H141.169V18.8238H147.051V18Z" fill="#1FA4B5"/>
<path d="M137.773 31.3176H131.89V32.1414H137.773V31.3176Z" fill="#1FA4B5"/>
<path d="M147.051 31.3176H141.169V32.1414H147.051V31.3176Z" fill="#1FA4B5"/>
<path d="M87.5156 31.3176H83.5269V32.1414H87.5156V31.3176Z" fill="#1FA4B5"/>
<path d="M94.0872 28.4838H87.1077L85.7597 32.0041H84.6571L90.0544 18.162H91.157L96.5378 32.0041H95.4351L94.0872 28.4838ZM93.7096 27.4953L90.614 19.4498L87.5156 27.4953H93.7096Z" fill="#1FA4B5"/>
<path d="M97.6321 31.3176H93.6434V32.1414H97.6321V31.3176Z" fill="#1FA4B5"/>
<path d="M98.1338 18.162H99.286L103.87 30.6394L108.476 18.162H109.606L104.421 32.0041H103.319L98.1338 18.162Z" fill="#1FA4B5"/>
<path d="M100.802 18H96.8134V18.8238H100.802V18Z" fill="#1FA4B5"/>
<path d="M110.863 18.0082H106.875V18.832H110.863V18.0082Z" fill="#1FA4B5"/>
<path d="M160.307 28.4701H153.342L151.991 31.9903H150.888L156.286 18.151H157.388L162.769 31.9903H161.666L160.307 28.4701ZM159.93 27.4733L156.848 19.4361L153.739 27.4733H159.93Z" fill="#1FA4B5"/>
<path d="M153.405 31.3176H149.416V32.1414H153.405V31.3176Z" fill="#1FA4B5"/>
<path d="M164.065 31.3176H160.076V32.1414H164.065V31.3176Z" fill="#1FA4B5"/>
<path d="M173.939 26.3173H169.528V31.9903H168.475V18.151H173.952C174.948 18.1486 175.911 18.5079 176.661 19.1617C177.41 19.8154 177.895 20.7187 178.024 21.7027C178.153 22.6866 177.918 23.6836 177.362 24.5072C176.806 25.3309 175.969 25.9246 175.005 26.1773L178.459 31.9903H177.246L173.939 26.3173ZM169.528 25.3288H173.952C174.776 25.3288 175.566 25.0028 176.149 24.4224C176.732 23.842 177.059 23.0549 177.059 22.2342C177.059 21.4134 176.732 20.6263 176.149 20.0459C175.566 19.4656 174.776 19.1395 173.952 19.1395H169.528V25.3288Z" fill="#1FA4B5"/>
<path d="M171.066 31.3176H167.078V32.1414H171.066V31.3176Z" fill="#1FA4B5"/>
<path d="M179.639 31.3176H175.65V32.1414H179.639V31.3176Z" fill="#1FA4B5"/>
<path d="M197.184 31.9903H196.134V19.6915L190.993 28.2037H190.814L185.673 19.6915V31.9903H184.62V18.151H185.932L190.894 26.3365L195.856 18.151H197.184V31.9903Z" fill="#1FA4B5"/>
<path d="M187.062 31.3176H183.074V32.1414H187.062V31.3176Z" fill="#1FA4B5"/>
<path d="M198.706 31.3176H194.717V32.1414H198.706V31.3176Z" fill="#1FA4B5"/>
<path d="M230.04 18.1373V31.9903H229.069L220.907 20.0869V31.9931H219.857V18.1373H220.769L228.987 30.0545V18.1373H230.04Z" fill="#1FA4B5"/>
<path d="M222.503 31.3176H218.514V32.1414H222.503V31.3176Z" fill="#1FA4B5"/>
<path d="M231.462 18H227.473V18.8238H231.462V18Z" fill="#1FA4B5"/>
<path d="M63.9059 18.162H65.0085L68.592 30.6009L72.4511 18.162H73.7026L77.5921 30.6009L81.1756 18.162H82.2782L78.2867 32.0041H77.016L73.1265 19.5267L69.2039 32.0041H67.9332L63.9059 18.162Z" fill="#1FA4B5"/>
<path d="M67.7926 18.0165H61.9102V18.8402H67.7926V18.0165Z" fill="#1FA4B5"/>
<path d="M84.3925 18.0165H78.51V18.8402H84.3925V18.0165Z" fill="#1FA4B5"/>
<path d="M241.724 26.375V31.9794H240.672V26.375L235.611 18.3625H236.801L241.212 25.3837L245.608 18.3652H246.799L241.724 26.375Z" fill="#1FA4B5"/>
<path d="M238.353 18H234.365V18.8238H238.353V18Z" fill="#1FA4B5"/>
<path d="M248.001 18H244.012V18.8238H248.001V18Z" fill="#1FA4B5"/>
<path d="M243.191 31.3176H239.202V32.1414H243.191V31.3176Z" fill="#1FA4B5"/>
<path d="M132.166 18.5119H138.048V18.3119H132.166V18.5119ZM141.169 18.5119H147.054V18.3119H141.169V18.5119ZM131.89 31.8652H137.773V31.6652H131.89V31.8652ZM141.169 31.8652H147.051V31.6652H141.169V31.8652ZM61.9102 18.5284H67.7926V18.3284H61.9102V18.5284ZM78.51 18.5284H84.3925V18.3284H78.51V18.5284ZM121.89 31.0155H122.09V30.8157L121.89 30.8155L121.89 31.0155ZM121.89 32.0041V32.2041H122.09V32.0041H121.89ZM113.896 32.0041H113.696V32.2041H113.896V32.0041ZM113.896 18.162V17.962H113.696V18.162H113.896ZM121.796 18.162H121.996V17.962H121.796V18.162ZM121.796 19.1533V19.3533H121.996V19.1533H121.796ZM114.949 19.1533V18.9533H114.749V19.1533H114.949ZM114.949 24.5297H114.749V24.7297H114.949V24.5297ZM121.289 24.5297H121.489V24.3297H121.289V24.5297ZM121.289 25.5183V25.7183H121.489V25.5183H121.289ZM114.949 25.5183V25.3183H114.749V25.5183H114.949ZM114.949 31.01H114.749V31.2099L114.948 31.21L114.949 31.01ZM144.612 18.4943H144.812V18.2943H144.612V18.4943ZM144.612 31.9299V32.1299H144.812V31.9299H144.612ZM143.559 31.9299H143.359V32.1299H143.559V31.9299ZM143.559 25.499H143.759V25.299H143.559V25.499ZM135.479 25.499V25.299H135.279V25.499H135.479ZM135.479 31.9299V32.1299H135.679V31.9299H135.479ZM134.429 31.9299H134.229V32.1299H134.429V31.9299ZM134.429 18.4943V18.2943H134.229V18.4943H134.429ZM135.479 18.4943H135.679V18.2943H135.479V18.4943ZM135.479 24.5352H135.279V24.7352H135.479V24.5352ZM143.559 24.5352V24.7352H143.759V24.5352H143.559ZM143.559 18.4943V18.2943H143.359V18.4943H143.559ZM132.166 18V17.8H131.966V18H132.166ZM138.048 18H138.248V17.8H138.048V18ZM138.048 18.8238V19.0238H138.248V18.8238H138.048ZM132.166 18.8238H131.966V19.0238H132.166V18.8238ZM141.169 18V17.8H140.969V18H141.169ZM147.051 18H147.251V17.8H147.051V18ZM147.051 18.8238V19.0238H147.251V18.8238H147.051ZM141.169 18.8238H140.969V19.0238H141.169V18.8238ZM131.89 31.3176V31.1176H131.69V31.3176H131.89ZM137.773 31.3176H137.973V31.1176H137.773V31.3176ZM137.773 32.1414V32.3414H137.973V32.1414H137.773ZM131.89 32.1414H131.69V32.3414H131.89V32.1414ZM141.169 31.3176V31.1176H140.969V31.3176H141.169ZM147.051 31.3176H147.251V31.1176H147.051V31.3176ZM147.051 32.1414V32.3414H147.251V32.1414H147.051ZM141.169 32.1414H140.969V32.3414H141.169V32.1414ZM83.5269 31.3176V31.1176H83.3269V31.3176H83.5269ZM87.5156 31.3176H87.7156V31.1176H87.5156V31.3176ZM87.5156 32.1414V32.3414H87.7156V32.1414H87.5156ZM83.5269 32.1414H83.3269V32.3414H83.5269V32.1414ZM94.0872 28.4838L94.274 28.4123L94.2248 28.2838H94.0872V28.4838ZM87.1077 28.4838V28.2838H86.9701L86.9209 28.4123L87.1077 28.4838ZM85.7597 32.0041V32.2041H85.8973L85.9465 32.0756L85.7597 32.0041ZM84.6571 32.0041L84.4707 31.9314L84.3644 32.2041H84.6571V32.0041ZM90.0544 18.162V17.962H89.9177L89.868 18.0894L90.0544 18.162ZM91.157 18.162L91.3434 18.0895L91.2938 17.962H91.157V18.162ZM96.5378 32.0041V32.2041H96.8301L96.7242 31.9316L96.5378 32.0041ZM95.4351 32.0041L95.2484 32.0756L95.2976 32.2041H95.4351V32.0041ZM93.7096 27.4953V27.6953H94.0008L93.8962 27.4235L93.7096 27.4953ZM90.614 19.4498L90.8006 19.378L90.614 18.8931L90.4273 19.378L90.614 19.4498ZM87.5156 27.4953L87.329 27.4234L87.2243 27.6953H87.5156V27.4953ZM93.6434 31.3176V31.1176H93.4434V31.3176H93.6434ZM97.6321 31.3176H97.8321V31.1176H97.6321V31.3176ZM97.6321 32.1414V32.3414H97.8321V32.1414H97.6321ZM93.6434 32.1414H93.4434V32.3414H93.6434V32.1414ZM98.1338 18.162V17.962H97.8453L97.9465 18.2322L98.1338 18.162ZM99.286 18.162L99.4738 18.093L99.4256 17.962H99.286V18.162ZM103.87 30.6394L103.682 30.7083L103.87 31.2181L104.058 30.7086L103.87 30.6394ZM108.476 18.162V17.962H108.337L108.289 18.0927L108.476 18.162ZM109.606 18.162L109.794 18.2322L109.895 17.962H109.606V18.162ZM104.421 32.0041V32.2041H104.56L104.609 32.0742L104.421 32.0041ZM103.319 32.0041L103.132 32.0742L103.18 32.2041H103.319V32.0041ZM96.8134 18V17.8H96.6134V18H96.8134ZM100.802 18H101.002V17.8H100.802V18ZM100.802 18.8238V19.0238H101.002V18.8238H100.802ZM96.8134 18.8238H96.6134V19.0238H96.8134V18.8238ZM106.875 18.0082V17.8082H106.675V18.0082H106.875ZM110.863 18.0082H111.063V17.8082H110.863V18.0082ZM110.863 18.832V19.032H111.063V18.832H110.863ZM106.875 18.832H106.675V19.032H106.875V18.832ZM160.307 28.4701L160.494 28.3981L160.445 28.2701H160.307V28.4701ZM153.342 28.4701V28.2701H153.204L153.155 28.3985L153.342 28.4701ZM151.991 31.9903V32.1903H152.128L152.178 32.062L151.991 31.9903ZM150.888 31.9903L150.702 31.9177L150.596 32.1903H150.888V31.9903ZM156.286 18.151V17.951H156.149L156.099 18.0784L156.286 18.151ZM157.388 18.151L157.575 18.0785L157.525 17.951H157.388V18.151ZM162.769 31.9903V32.1903H163.061L162.955 31.9179L162.769 31.9903ZM161.666 31.9903L161.48 32.0624L161.529 32.1903H161.666V31.9903ZM159.93 27.4733V27.6733H160.221L160.117 27.4017L159.93 27.4733ZM156.848 19.4361L157.035 19.3645L156.849 18.8797L156.661 19.3639L156.848 19.4361ZM153.739 27.4733L153.552 27.4012L153.447 27.6733H153.739V27.4733ZM149.416 31.3176V31.1176H149.216V31.3176H149.416ZM153.405 31.3176H153.605V31.1176H153.405V31.3176ZM153.405 32.1414V32.3414H153.605V32.1414H153.405ZM149.416 32.1414H149.216V32.3414H149.416V32.1414ZM160.076 31.3176V31.1176H159.876V31.3176H160.076ZM164.065 31.3176H164.265V31.1176H164.065V31.3176ZM164.065 32.1414V32.3414H164.265V32.1414H164.065ZM160.076 32.1414H159.876V32.3414H160.076V32.1414ZM173.939 26.3173L174.111 26.2166L174.053 26.1173H173.939V26.3173ZM169.528 26.3173V26.1173H169.328V26.3173H169.528ZM169.528 31.9903V32.1903H169.728V31.9903H169.528ZM168.475 31.9903H168.275V32.1903H168.475V31.9903ZM168.475 18.151V17.951H168.275V18.151H168.475ZM173.952 18.151V18.351L173.953 18.351L173.952 18.151ZM175.005 26.1773L174.955 25.9838L174.698 26.0512L174.833 26.2794L175.005 26.1773ZM178.459 31.9903V32.1903H178.811L178.631 31.8882L178.459 31.9903ZM177.246 31.9903L177.074 32.0911L177.131 32.1903H177.246V31.9903ZM169.528 25.3288H169.328V25.5288H169.528V25.3288ZM169.528 19.1395V18.9395H169.328V19.1395H169.528ZM167.078 31.3176V31.1176H166.878V31.3176H167.078ZM171.066 31.3176H171.266V31.1176H171.066V31.3176ZM171.066 32.1414V32.3414H171.266V32.1414H171.066ZM167.078 32.1414H166.878V32.3414H167.078V32.1414ZM175.65 31.3176V31.1176H175.45V31.3176H175.65ZM179.639 31.3176H179.839V31.1176H179.639V31.3176ZM179.639 32.1414V32.3414H179.839V32.1414H179.639ZM175.65 32.1414H175.45V32.3414H175.65V32.1414ZM197.184 31.9903V32.1903H197.384V31.9903H197.184ZM196.134 31.9903H195.934V32.1903H196.134V31.9903ZM196.134 19.6915H196.334V18.9735L195.963 19.5881L196.134 19.6915ZM190.993 28.2037V28.4037H191.106L191.164 28.3071L190.993 28.2037ZM190.814 28.2037L190.643 28.3071L190.701 28.4037H190.814V28.2037ZM185.673 19.6915L185.844 19.5881L185.473 18.9734V19.6915H185.673ZM185.673 31.9903V32.1903H185.873V31.9903H185.673ZM184.62 31.9903H184.42V32.1903H184.62V31.9903ZM184.62 18.151V17.951H184.42V18.151H184.62ZM185.932 18.151L186.103 18.0473L186.045 17.951H185.932V18.151ZM190.894 26.3365L190.723 26.4402L190.894 26.7224L191.065 26.4402L190.894 26.3365ZM195.856 18.151V17.951H195.743L195.685 18.0473L195.856 18.151ZM197.184 18.151H197.384V17.951H197.184V18.151ZM183.074 31.3176V31.1176H182.874V31.3176H183.074ZM187.062 31.3176H187.262V31.1176H187.062V31.3176ZM187.062 32.1414V32.3414H187.262V32.1414H187.062ZM183.074 32.1414H182.874V32.3414H183.074V32.1414ZM194.717 31.3176V31.1176H194.517V31.3176H194.717ZM198.706 31.3176H198.906V31.1176H198.706V31.3176ZM198.706 32.1414V32.3414H198.906V32.1414H198.706ZM194.717 32.1414H194.517V32.3414H194.717V32.1414ZM230.04 18.1373H230.24V17.9373H230.04V18.1373ZM230.04 31.9903V32.1903H230.24V31.9903H230.04ZM229.069 31.9903L228.904 32.1034L228.964 32.1903H229.069V31.9903ZM220.907 20.0869L221.072 19.9738L220.707 19.4415V20.0869H220.907ZM220.907 31.9931V32.1931H221.107V31.9931H220.907ZM219.857 31.9931H219.657V32.1931H219.857V31.9931ZM219.857 18.1373V17.9373H219.657V18.1373H219.857ZM220.769 18.1373L220.934 18.0238L220.874 17.9373H220.769V18.1373ZM228.987 30.0545L228.822 30.168L229.187 30.6969V30.0545H228.987ZM228.987 18.1373V17.9373H228.787V18.1373H228.987ZM218.514 31.3176V31.1176H218.314V31.3176H218.514ZM222.503 31.3176H222.703V31.1176H222.503V31.3176ZM222.503 32.1414V32.3414H222.703V32.1414H222.503ZM218.514 32.1414H218.314V32.3414H218.514V32.1414ZM227.473 18V17.8H227.273V18H227.473ZM231.462 18H231.662V17.8H231.462V18ZM231.462 18.8238V19.0238H231.662V18.8238H231.462ZM227.473 18.8238H227.273V19.0238H227.473V18.8238ZM63.9059 18.162V17.962H63.6394L63.7139 18.2179L63.9059 18.162ZM65.0085 18.162L65.2007 18.1066L65.159 17.962H65.0085V18.162ZM68.592 30.6009L68.3998 30.6563L68.5849 31.2987L68.783 30.6602L68.592 30.6009ZM72.4511 18.162V17.962H72.3038L72.2601 18.1027L72.4511 18.162ZM73.7026 18.162L73.8935 18.1023L73.8496 17.962H73.7026V18.162ZM77.5921 30.6009L77.4012 30.6606L77.5999 31.2962L77.7843 30.6563L77.5921 30.6009ZM81.1756 18.162V17.962H81.0251L80.9834 18.1066L81.1756 18.162ZM82.2782 18.162L82.4704 18.2174L82.544 17.962H82.2782V18.162ZM78.2867 32.0041V32.2041H78.4372L78.4789 32.0595L78.2867 32.0041ZM77.016 32.0041L76.825 32.0636L76.8688 32.2041H77.016V32.0041ZM73.1265 19.5267L73.3174 19.4672L73.1273 18.8573L72.9357 19.4667L73.1265 19.5267ZM69.2039 32.0041V32.2041H69.3507L69.3947 32.064L69.2039 32.0041ZM67.9332 32.0041L67.7412 32.0599L67.7831 32.2041H67.9332V32.0041ZM61.9102 18.0165V17.8165H61.7102V18.0165H61.9102ZM67.7926 18.0165H67.9926V17.8165H67.7926V18.0165ZM67.7926 18.8402V19.0402H67.9926V18.8402H67.7926ZM61.9102 18.8402H61.7102V19.0402H61.9102V18.8402ZM78.51 18.0165V17.8165H78.31V18.0165H78.51ZM84.3925 18.0165H84.5925V17.8165H84.3925V18.0165ZM84.3925 18.8402V19.0402H84.5925V18.8402H84.3925ZM78.51 18.8402H78.31V19.0402H78.51V18.8402ZM241.724 26.375L241.556 26.2679L241.524 26.317V26.375H241.724ZM241.724 31.9794V32.1794H241.924V31.9794H241.724ZM240.672 31.9794H240.472V32.1794H240.672V31.9794ZM240.672 26.375H240.872V26.3171L240.841 26.2682L240.672 26.375ZM235.611 18.3625V18.1625H235.248L235.441 18.4693L235.611 18.3625ZM236.801 18.3625L236.971 18.2561L236.912 18.1625H236.801V18.3625ZM241.212 25.3837L241.042 25.4901L241.212 25.7601L241.381 25.4899L241.212 25.3837ZM245.608 18.3652V18.1652H245.498L245.439 18.259L245.608 18.3652ZM246.799 18.3652L246.968 18.4722L247.163 18.1652H246.799V18.3652ZM234.365 18V17.8H234.165V18H234.365ZM238.353 18H238.553V17.8H238.353V18ZM238.353 18.8238V19.0238H238.553V18.8238H238.353ZM234.365 18.8238H234.165V19.0238H234.365V18.8238ZM244.012 18V17.8H243.812V18H244.012ZM248.001 18H248.201V17.8H248.001V18ZM248.001 18.8238V19.0238H248.201V18.8238H248.001ZM244.012 18.8238H243.812V19.0238H244.012V18.8238ZM239.202 31.3176V31.1176H239.002V31.3176H239.202ZM243.191 31.3176H243.391V31.1176H243.191V31.3176ZM243.191 32.1414V32.3414H243.391V32.1414H243.191ZM239.202 32.1414H239.002V32.3414H239.202V32.1414ZM121.69 31.0155V32.0041H122.09V31.0155H121.69ZM121.89 31.8041H113.896V32.2041H121.89V31.8041ZM114.096 32.0041V18.162H113.696V32.0041H114.096ZM113.896 18.362H121.796V17.962H113.896V18.362ZM121.596 18.162V19.1533H121.996V18.162H121.596ZM121.796 18.9533H114.949V19.3533H121.796V18.9533ZM114.749 19.1533V24.5297H115.149V19.1533H114.749ZM114.949 24.7297H121.289V24.3297H114.949V24.7297ZM121.089 24.5297V25.5183H121.489V24.5297H121.089ZM121.289 25.3183H114.949V25.7183H121.289V25.3183ZM114.749 25.5183V31.01H115.149V25.5183H114.749ZM114.948 31.21L121.889 31.2155L121.89 30.8155L114.949 30.8101L114.948 31.21ZM201.533 25.0679C201.533 21.3402 204.594 18.3483 208.5 18.3483V17.9483C204.385 17.9483 201.133 21.1072 201.133 25.0679H201.533ZM208.5 18.3483C212.406 18.3483 215.467 21.351 215.467 25.0679H215.867C215.867 21.1184 212.615 17.9483 208.5 17.9483V18.3483ZM215.467 25.0679C215.467 28.785 212.406 31.7903 208.5 31.7903V32.1903C212.615 32.1903 215.867 29.0174 215.867 25.0679H215.467ZM208.5 31.7903C204.594 31.7903 201.533 28.7877 201.533 25.0679H201.133C201.133 29.0202 204.385 32.1903 208.5 32.1903V31.7903ZM214.811 25.0679C214.811 21.658 212.038 18.9258 208.497 18.9258V19.3258C211.826 19.3258 214.411 21.8877 214.411 25.0679H214.811ZM208.497 18.9258C204.957 18.9258 202.183 21.6552 202.183 25.0679H202.583C202.583 21.885 205.169 19.3258 208.497 19.3258V18.9258ZM202.183 25.0679C202.183 28.4806 204.957 31.2128 208.497 31.2128V30.8128C205.169 30.8128 202.583 28.2509 202.583 25.0679H202.183ZM208.497 31.2128C212.038 31.2128 214.811 28.4805 214.811 25.0679H214.411C214.411 28.2509 211.826 30.8128 208.497 30.8128V31.2128ZM144.412 18.4943V31.9299H144.812V18.4943H144.412ZM144.612 31.7299H143.559V32.1299H144.612V31.7299ZM143.759 31.9299V25.499H143.359V31.9299H143.759ZM143.559 25.299H135.479V25.699H143.559V25.299ZM135.279 25.499V31.9299H135.679V25.499H135.279ZM135.479 31.7299H134.429V32.1299H135.479V31.7299ZM134.629 31.9299V18.4943H134.229V31.9299H134.629ZM134.429 18.6943H135.479V18.2943H134.429V18.6943ZM135.279 18.4943V24.5352H135.679V18.4943H135.279ZM135.479 24.7352H143.559V24.3352H135.479V24.7352ZM143.759 24.5352V18.4943H143.359V24.5352H143.759ZM143.559 18.6943H144.612V18.2943H143.559V18.6943ZM132.166 18.2H138.048V17.8H132.166V18.2ZM137.848 18V18.8238H138.248V18H137.848ZM138.048 18.6238H132.166V19.0238H138.048V18.6238ZM132.366 18.8238V18H131.966V18.8238H132.366ZM141.169 18.2H147.051V17.8H141.169V18.2ZM146.851 18V18.8238H147.251V18H146.851ZM147.051 18.6238H141.169V19.0238H147.051V18.6238ZM141.369 18.8238V18H140.969V18.8238H141.369ZM131.89 31.5176H137.773V31.1176H131.89V31.5176ZM137.573 31.3176V32.1414H137.973V31.3176H137.573ZM137.773 31.9414H131.89V32.3414H137.773V31.9414ZM132.09 32.1414V31.3176H131.69V32.1414H132.09ZM141.169 31.5176H147.051V31.1176H141.169V31.5176ZM146.851 31.3176V32.1414H147.251V31.3176H146.851ZM147.051 31.9414H141.169V32.3414H147.051V31.9414ZM141.369 32.1414V31.3176H140.969V32.1414H141.369ZM83.5269 31.5176H87.5156V31.1176H83.5269V31.5176ZM87.3156 31.3176V32.1414H87.7156V31.3176H87.3156ZM87.5156 31.9414H83.5269V32.3414H87.5156V31.9414ZM83.7269 32.1414V31.3176H83.3269V32.1414H83.7269ZM94.0872 28.2838H87.1077V28.6838H94.0872V28.2838ZM86.9209 28.4123L85.5729 31.9325L85.9465 32.0756L87.2944 28.5553L86.9209 28.4123ZM85.7597 31.8041H84.6571V32.2041H85.7597V31.8041ZM84.8434 32.0767L90.2407 18.2347L89.868 18.0894L84.4707 31.9314L84.8434 32.0767ZM90.0544 18.362H91.157V17.962H90.0544V18.362ZM90.9706 18.2345L96.3513 32.0765L96.7242 31.9316L91.3434 18.0895L90.9706 18.2345ZM96.5378 31.8041H95.4351V32.2041H96.5378V31.8041ZM95.6219 31.9325L94.274 28.4123L93.9004 28.5553L95.2484 32.0756L95.6219 31.9325ZM93.8962 27.4235L90.8006 19.378L90.4273 19.5217L93.5229 27.5671L93.8962 27.4235ZM90.4273 19.378L87.329 27.4234L87.7023 27.5672L90.8006 19.5217L90.4273 19.378ZM87.5156 27.6953H93.7096V27.2953H87.5156V27.6953ZM93.6434 31.5176H97.6321V31.1176H93.6434V31.5176ZM97.4321 31.3176V32.1414H97.8321V31.3176H97.4321ZM97.6321 31.9414H93.6434V32.3414H97.6321V31.9414ZM93.8434 32.1414V31.3176H93.4434V32.1414H93.8434ZM98.1338 18.362H99.286V17.962H98.1338V18.362ZM99.0983 18.231L103.682 30.7083L104.058 30.5704L99.4738 18.093L99.0983 18.231ZM104.058 30.7086L108.664 18.2313L108.289 18.0927L103.683 30.5701L104.058 30.7086ZM108.476 18.362H109.606V17.962H108.476V18.362ZM109.419 18.0918L104.234 31.9339L104.609 32.0742L109.794 18.2322L109.419 18.0918ZM104.421 31.8041H103.319V32.2041H104.421V31.8041ZM103.506 31.9339L98.3211 18.0918L97.9465 18.2322L103.132 32.0742L103.506 31.9339ZM96.8134 18.2H100.802V17.8H96.8134V18.2ZM100.602 18V18.8238H101.002V18H100.602ZM100.802 18.6238H96.8134V19.0238H100.802V18.6238ZM97.0134 18.8238V18H96.6134V18.8238H97.0134ZM106.875 18.2082H110.863V17.8082H106.875V18.2082ZM110.663 18.0082V18.832H111.063V18.0082H110.663ZM110.863 18.632H106.875V19.032H110.863V18.632ZM107.075 18.832V18.0082H106.675V18.832H107.075ZM160.307 28.2701H153.342V28.6701H160.307V28.2701ZM153.155 28.3985L151.804 31.9187L152.178 32.062L153.528 28.5417L153.155 28.3985ZM151.991 31.7903H150.888V32.1903H151.991V31.7903ZM151.075 32.063L156.472 18.2237L156.099 18.0784L150.702 31.9177L151.075 32.063ZM156.286 18.351H157.388V17.951H156.286V18.351ZM157.202 18.2235L162.583 32.0628L162.955 31.9179L157.575 18.0785L157.202 18.2235ZM162.769 31.7903H161.666V32.1903H162.769V31.7903ZM161.853 31.9183L160.494 28.3981L160.121 28.5421L161.48 32.0624L161.853 31.9183ZM160.117 27.4017L157.035 19.3645L156.661 19.5077L159.743 27.5449L160.117 27.4017ZM156.661 19.3639L153.552 27.4012L153.925 27.5455L157.035 19.5083L156.661 19.3639ZM153.739 27.6733H159.93V27.2733H153.739V27.6733ZM149.416 31.5176H153.405V31.1176H149.416V31.5176ZM153.205 31.3176V32.1414H153.605V31.3176H153.205ZM153.405 31.9414H149.416V32.3414H153.405V31.9414ZM149.616 32.1414V31.3176H149.216V32.1414H149.616ZM160.076 31.5176H164.065V31.1176H160.076V31.5176ZM163.865 31.3176V32.1414H164.265V31.3176H163.865ZM164.065 31.9414H160.076V32.3414H164.065V31.9414ZM160.276 32.1414V31.3176H159.876V32.1414H160.276ZM173.939 26.1173H169.528V26.5173H173.939V26.1173ZM169.328 26.3173V31.9903H169.728V26.3173H169.328ZM169.528 31.7903H168.475V32.1903H169.528V31.7903ZM168.675 31.9903V18.151H168.275V31.9903H168.675ZM168.475 18.351H173.952V17.951H168.475V18.351ZM173.953 18.351C174.901 18.3488 175.816 18.6906 176.529 19.3124L176.792 19.0109C176.006 18.3253 174.996 17.9485 173.952 17.951L173.953 18.351ZM176.529 19.3124C177.242 19.9341 177.703 20.7932 177.825 21.7287L178.222 21.6766C178.087 20.6443 177.578 19.6966 176.792 19.0109L176.529 19.3124ZM177.825 21.7287C177.948 22.6642 177.725 23.6122 177.196 24.3954L177.528 24.6191C178.111 23.7551 178.358 22.709 178.222 21.6766L177.825 21.7287ZM177.196 24.3954C176.668 25.1786 175.871 25.7434 174.955 25.9838L175.056 26.3707C176.066 26.1057 176.945 25.4831 177.528 24.6191L177.196 24.3954ZM174.833 26.2794L178.287 32.0925L178.631 31.8882L175.177 26.0751L174.833 26.2794ZM178.459 31.7903H177.246V32.1903H178.459V31.7903ZM177.419 31.8896L174.111 26.2166L173.766 26.4181L177.074 32.0911L177.419 31.8896ZM169.528 25.5288H173.952V25.1288H169.528V25.5288ZM173.952 25.5288C174.829 25.5288 175.67 25.1819 176.29 24.5641L176.008 24.2807C175.463 24.8236 174.723 25.1288 173.952 25.1288V25.5288ZM176.29 24.5641C176.91 23.9463 177.259 23.1082 177.259 22.2342H176.859C176.859 23.0016 176.553 23.7378 176.008 24.2807L176.29 24.5641ZM177.259 22.2342C177.259 21.3601 176.91 20.522 176.29 19.9042L176.008 20.1876C176.553 20.7305 176.859 21.4667 176.859 22.2342H177.259ZM176.29 19.9042C175.67 19.2865 174.829 18.9395 173.952 18.9395V19.3395C174.723 19.3395 175.463 19.6447 176.008 20.1876L176.29 19.9042ZM173.952 18.9395H169.528V19.3395H173.952V18.9395ZM169.328 19.1395V25.3288H169.728V19.1395H169.328ZM167.078 31.5176H171.066V31.1176H167.078V31.5176ZM170.866 31.3176V32.1414H171.266V31.3176H170.866ZM171.066 31.9414H167.078V32.3414H171.066V31.9414ZM167.278 32.1414V31.3176H166.878V32.1414H167.278ZM175.65 31.5176H179.639V31.1176H175.65V31.5176ZM179.439 31.3176V32.1414H179.839V31.3176H179.439ZM179.639 31.9414H175.65V32.3414H179.639V31.9414ZM175.85 32.1414V31.3176H175.45V32.1414H175.85ZM197.184 31.7903H196.134V32.1903H197.184V31.7903ZM196.334 31.9903V19.6915H195.934V31.9903H196.334ZM195.963 19.5881L190.822 28.1003L191.164 28.3071L196.305 19.7949L195.963 19.5881ZM190.993 28.0037H190.814V28.4037H190.993V28.0037ZM190.985 28.1003L185.844 19.5881L185.502 19.7949L190.643 28.3071L190.985 28.1003ZM185.473 19.6915V31.9903H185.873V19.6915H185.473ZM185.673 31.7903H184.62V32.1903H185.673V31.7903ZM184.82 31.9903V18.151H184.42V31.9903H184.82ZM184.62 18.351H185.932V17.951H184.62V18.351ZM185.761 18.2547L190.723 26.4402L191.065 26.2329L186.103 18.0473L185.761 18.2547ZM191.065 26.4402L196.027 18.2547L195.685 18.0473L190.723 26.2329L191.065 26.4402ZM195.856 18.351H197.184V17.951H195.856V18.351ZM196.984 18.151V31.9903H197.384V18.151H196.984ZM183.074 31.5176H187.062V31.1176H183.074V31.5176ZM186.862 31.3176V32.1414H187.262V31.3176H186.862ZM187.062 31.9414H183.074V32.3414H187.062V31.9414ZM183.274 32.1414V31.3176H182.874V32.1414H183.274ZM194.717 31.5176H198.706V31.1176H194.717V31.5176ZM198.506 31.3176V32.1414H198.906V31.3176H198.506ZM198.706 31.9414H194.717V32.3414H198.706V31.9414ZM194.917 32.1414V31.3176H194.517V32.1414H194.917ZM229.84 18.1373V31.9903H230.24V18.1373H229.84ZM230.04 31.7903H229.069V32.1903H230.04V31.7903ZM229.234 31.8772L221.072 19.9738L220.742 20.2L228.904 32.1034L229.234 31.8772ZM220.707 20.0869V31.9931H221.107V20.0869H220.707ZM220.907 31.7931H219.857V32.1931H220.907V31.7931ZM220.057 31.9931V18.1373H219.657V31.9931H220.057ZM219.857 18.3373H220.769V17.9373H219.857V18.3373ZM220.605 18.2508L228.822 30.168L229.151 29.9409L220.934 18.0238L220.605 18.2508ZM229.187 30.0545V18.1373H228.787V30.0545H229.187ZM228.987 18.3373H230.04V17.9373H228.987V18.3373ZM218.514 31.5176H222.503V31.1176H218.514V31.5176ZM222.303 31.3176V32.1414H222.703V31.3176H222.303ZM222.503 31.9414H218.514V32.3414H222.503V31.9414ZM218.714 32.1414V31.3176H218.314V32.1414H218.714ZM227.473 18.2H231.462V17.8H227.473V18.2ZM231.262 18V18.8238H231.662V18H231.262ZM231.462 18.6238H227.473V19.0238H231.462V18.6238ZM227.673 18.8238V18H227.273V18.8238H227.673ZM63.9059 18.362H65.0085V17.962H63.9059V18.362ZM64.8163 18.2174L68.3998 30.6563L68.7842 30.5455L65.2007 18.1066L64.8163 18.2174ZM68.783 30.6602L72.6422 18.2213L72.2601 18.1027L68.401 30.5417L68.783 30.6602ZM72.4511 18.362H73.7026V17.962H72.4511V18.362ZM73.5117 18.2217L77.4012 30.6606L77.783 30.5412L73.8935 18.1023L73.5117 18.2217ZM77.7843 30.6563L81.3678 18.2174L80.9834 18.1066L77.3999 30.5455L77.7843 30.6563ZM81.1756 18.362H82.2782V17.962H81.1756V18.362ZM82.086 18.1066L78.0946 31.9486L78.4789 32.0595L82.4704 18.2174L82.086 18.1066ZM78.2867 31.8041H77.016V32.2041H78.2867V31.8041ZM77.2069 31.9445L73.3174 19.4672L72.9356 19.5862L76.825 32.0636L77.2069 31.9445ZM72.9357 19.4667L69.0132 31.9441L69.3947 32.064L73.3173 19.5867L72.9357 19.4667ZM69.2039 31.8041H67.9332V32.2041H69.2039V31.8041ZM68.1252 31.9482L64.0979 18.1061L63.7139 18.2179L67.7412 32.0599L68.1252 31.9482ZM61.9102 18.2165H67.7926V17.8165H61.9102V18.2165ZM67.5926 18.0165V18.8402H67.9926V18.0165H67.5926ZM67.7926 18.6402H61.9102V19.0402H67.7926V18.6402ZM62.1102 18.8402V18.0165H61.7102V18.8402H62.1102ZM78.51 18.2165H84.3925V17.8165H78.51V18.2165ZM84.1925 18.0165V18.8402H84.5925V18.0165H84.1925ZM84.3925 18.6402H78.51V19.0402H84.3925V18.6402ZM78.71 18.8402V18.0165H78.31V18.8402H78.71ZM241.524 26.375V31.9794H241.924V26.375H241.524ZM241.724 31.7794H240.672V32.1794H241.724V31.7794ZM240.872 31.9794V26.375H240.472V31.9794H240.872ZM240.841 26.2682L235.78 18.2557L235.441 18.4693L240.502 26.4818L240.841 26.2682ZM235.611 18.5625H236.801V18.1625H235.611V18.5625ZM236.632 18.4688L241.042 25.4901L241.381 25.2773L236.971 18.2561L236.632 18.4688ZM241.381 25.4899L245.778 18.4714L245.439 18.259L241.042 25.2775L241.381 25.4899ZM245.608 18.5652H246.799V18.1652H245.608V18.5652ZM246.63 18.2582L241.556 26.2679L241.893 26.482L246.968 18.4722L246.63 18.2582ZM234.365 18.2H238.353V17.8H234.365V18.2ZM238.153 18V18.8238H238.553V18H238.153ZM238.353 18.6238H234.365V19.0238H238.353V18.6238ZM234.565 18.8238V18H234.165V18.8238H234.565ZM244.012 18.2H248.001V17.8H244.012V18.2ZM247.801 18V18.8238H248.201V18H247.801ZM248.001 18.6238H244.012V19.0238H248.001V18.6238ZM244.212 18.8238V18H243.812V18.8238H244.212ZM239.202 31.5176H243.191V31.1176H239.202V31.5176ZM242.991 31.3176V32.1414H243.391V31.3176H242.991ZM243.191 31.9414H239.202V32.3414H243.191V31.9414ZM239.402 32.1414V31.3176H239.002V32.1414H239.402Z" fill="#1FA4B5" mask="url(#path-3-outside-1_101_12091)"/>
</g>
<defs>
<clipPath id="clip0_101_12091">
<rect width="248" height="50" fill="white"/>
</clipPath>
</defs>
</svg>
