<?xml version="1.0" encoding="utf-8"?>
<!-- Generator: Adobe Illustrator 19.2.1, SVG Export Plug-In . SVG Version: 6.00 Build 0)  -->
<svg version="1.1" id="Слой_1" xmlns="http://www.w3.org/2000/svg" xmlns:xlink="http://www.w3.org/1999/xlink" x="0px" y="0px"
	 viewBox="0 0 42 44" style="enable-background:new 0 0 42 44;" xml:space="preserve">
<style type="text/css">
	.st0{fill:#FFFFFF;}
	.st1{fill:none;stroke:#FFFFFF;stroke-width:4;stroke-opacity:0.2;}
	.st2{fill:url(#SVGID_1_);}
	.st3{fill:url(#SVGID_2_);}
</style>
<g>
	<g>
		<circle shape-rendering="crispEdges" class="st0" cx="21" cy="18" r="12"/>
	</g>
	<circle shape-rendering="crispEdges" class="st1" cx="21" cy="18" r="14"/>
</g>
<linearGradient id="SVGID_1_" gradientUnits="userSpaceOnUse" x1="21" y1="26.3891" x2="21" y2="25.3891" gradientTransform="matrix(1 0 0 -1 0 43.89)">
	<stop  offset="0" style="stop-color:#21A5B5"/>
	<stop  offset="1" style="stop-color:#71B2B4"/>
</linearGradient>
<path class="st2" d="M18,17.8c0-0.2,0.1-0.3,0.3-0.3h5.4c0.2,0,0.3,0.1,0.3,0.3v0.4c0,0.2-0.1,0.3-0.3,0.3h-5.4
	c-0.2,0-0.3-0.1-0.3-0.3V17.8z"/>
<linearGradient id="SVGID_2_" gradientUnits="userSpaceOnUse" x1="20.5" y1="25.89" x2="21.5" y2="25.89" gradientTransform="matrix(1 0 0 -1 0 43.89)">
	<stop  offset="0" style="stop-color:#21A5B5"/>
	<stop  offset="1" style="stop-color:#71B2B4"/>
</linearGradient>
<path class="st3" d="M20.8,21c-0.2,0-0.3-0.1-0.3-0.3v-5.4c0-0.2,0.1-0.3,0.3-0.3h0.4c0.2,0,0.3,0.1,0.3,0.3v5.4
	c0,0.2-0.1,0.3-0.3,0.3H20.8z"/>
</svg>
